<mxfile host="app.diagrams.net" modified="2024-02-16T06:45:37.755Z" agent="Mozilla/5.0 (Macintosh; Intel Mac OS X 10_15_7) AppleWebKit/537.36 (KHTML, like Gecko) Chrome/120.0.0.0 YaBrowser/24.1.0.0 Safari/537.36" version="22.1.21" etag="xKIbYAjfN65XCQExPw9D" type="github">
  <diagram name="Страница — 1" id="q_AGxXsScHiTiwYIOIDt">
    <mxGraphModel>
      <root>
        <mxCell id="0" />
        <mxCell id="1" parent="0" />
      </root>
    </mxGraphModel>
  </diagram>
</mxfile>
